# xmcd
#
# Track frame offsets: 
#        150
#        10650
#        27376
#        42131
#        56306
#        76255
#        86189
#        101171
#        117145
#        132208
#        142077
#        159032
#        182174
#        197080
#        210389
#        226126
#        243759
#        260791
#        277208
#        300370
#        323714
#
# Disc length: 4606 seconds
#
# Revision: 0
# Processed by: cddbd v1.5.2PL0 Copyright (c) Steve Scherf et al.
# Submitted via: ExactAudioCopy v0.99pb5
#
DISCID=1511fc15
DTITLE=Roger Williams - A Resophonic Retrospective
DYEAR=1900
DGENRE=Bluegrass
TTITLE0=Fireball
TTITLE1=Bus bounce
TTITLE2=Bouquet of roses
TTITLE3=Route 2 to Amherst
TTITLE4=The water is wide
TTITLE5=Roanoke
TTITLE6=Jonathan's lullaby
TTITLE7=hard times, over easy
TTITLE8=No one now
TTITLE9=Fire on the mountain
TTITLE10=Pickin' in Holland
TTITLE11=Waltz before the snow
TTITLE12=Arkansas Traveler
TTITLE13=Sledd ride
TTITLE14=Maggie blues
TTITLE15=Essex County
TTITLE16=No one will ever know
TTITLE17=Durham's bull
TTITLE18=Crazy
TTITLE19=Huckleberry hornpipe
TTITLE20=Czech Inn
EXTD=
EXTT0=
EXTT1=
EXTT2=
EXTT3=
EXTT4=
EXTT5=
EXTT6=
EXTT7=
EXTT8=
EXTT9=
EXTT10=
EXTT11=
EXTT12=
EXTT13=
EXTT14=
EXTT15=
EXTT16=
EXTT17=
EXTT18=
EXTT19=
EXTT20=
PLAYORDER=
